<?xml version="1.0" standalone="no"?>
<!DOCTYPE svg PUBLIC "-//W3C//DTD SVG 20010904//EN"
 "http://www.w3.org/TR/2001/REC-SVG-20010904/DTD/svg10.dtd">
<svg version="1.0" xmlns="http://www.w3.org/2000/svg"
 width="1280.000000pt" height="852.000000pt" viewBox="0 0 1280.000000 852.000000"
 preserveAspectRatio="xMidYMid meet">

<g transform="translate(0.000000,852.000000) scale(0.100000,-0.100000)"
fill="#000000" stroke="none">
<path d="M6045 6255 c6 -2 62 -5 125 -7 63 -3 102 -1 85 3 -29 6 -230 11 -210
4z"/>
<path d="M5983 6243 c9 -2 23 -2 30 0 6 3 -1 5 -18 5 -16 0 -22 -2 -12 -5z"/>
<path d="M5770 6196 c-44 -17 -160 -75 -160 -81 0 -2 37 13 83 34 45 21 93 43
107 49 35 15 12 13 -30 -2z"/>
<path d="M5098 6125 c35 -8 85 -28 111 -44 45 -29 111 -100 111 -119 0 -21 33
-72 46 -72 8 0 24 -19 35 -42 20 -43 20 -43 13 -8 -16 82 -87 184 -169 240
-46 31 -133 60 -179 59 -21 0 -10 -5 32 -14z"/>
<path d="M5008 6123 c7 -3 16 -2 19 1 4 3 -2 6 -13 5 -11 0 -14 -3 -6 -6z"/>
<path d="M5545 6076 c-56 -37 -81 -63 -71 -73 3 -3 6 -1 6 4 0 6 24 28 53 49
58 42 73 54 66 54 -2 0 -27 -15 -54 -34z"/>
<path d="M4551 5867 c-75 -167 -66 -308 34 -512 61 -124 212 -405 227 -420 5
-5 -34 76 -86 181 -110 221 -130 268 -162 384 -34 120 -34 263 0 360 14 39 23
70 20 70 -3 0 -18 -28 -33 -63z"/>
<path d="M5278 5903 c-35 -38 -89 -126 -120 -198 -47 -106 -60 -179 -56 -301
3 -102 5 -114 31 -152 35 -49 80 -72 139 -71 l43 1 -42 8 c-56 12 -77 24 -108
64 -54 71 -56 242 -5 392 25 72 92 205 127 250 31 41 26 44 -9 7z"/>
<path d="M6668 5836 c48 -52 72 -96 72 -131 0 -28 15 -34 24 -9 23 60 -55 184
-116 184 -18 0 -15 -6 20 -44z"/>
<path d="M3970 5809 c-56 -8 -175 -47 -167 -55 2 -2 19 2 38 10 54 22 171 37
222 27 101 -19 149 -70 155 -165 5 -81 -18 -135 -90 -213 -58 -64 -40 -55 35
16 74 71 103 170 75 252 -35 105 -126 148 -268 128z"/>
<path d="M6557 5779 c48 -47 73 -94 73 -138 l0 -31 39 20 c44 22 60 40 37 40
-9 0 -16 -4 -16 -10 0 -27 -21 -5 -31 32 -13 52 -85 128 -120 128 -21 0 -20
-3 18 -41z"/>
<path d="M5428 5745 c4 -33 6 -103 5 -155 -1 -84 0 -90 8 -50 11 50 5 189 -10
235 -8 23 -9 16 -3 -30z"/>
<path d="M3730 5719 c-17 -13 -18 -17 -5 -10 33 17 51 31 40 31 -5 0 -21 -10
-35 -21z"/>
<path d="M6354 5720 c-12 -5 -25 -13 -29 -19 -3 -6 -29 -23 -56 -36 -33 -17
-51 -33 -55 -50 -21 -83 117 -69 194 20 36 41 41 70 13 85 -23 12 -38 12 -67
0z"/>
<path d="M6776 5704 c-6 -15 -4 -15 11 -3 10 7 20 15 22 16 2 2 -3 3 -11 3 -9
0 -19 -7 -22 -16z"/>
<path d="M3619 5648 c-99 -70 -214 -181 -314 -303 -74 -91 -101 -130 -143
-205 l-14 -25 19 25 c202 274 351 431 513 542 14 9 22 17 19 17 -3 1 -39 -23
-80 -51z"/>
<path d="M6450 5534 c-85 -48 -247 -137 -360 -199 -113 -62 -266 -146 -340
-187 -74 -41 -180 -98 -235 -128 -55 -29 -105 -57 -111 -61 -9 -8 -85 -49
-176 -96 -15 -8 -30 -18 -33 -23 -7 -11 15 -60 27 -60 5 0 7 4 4 8 -3 5 9 16
27 26 l32 18 -25 -22 -25 -22 35 20 c95 53 130 74 130 79 0 2 -4 1 -10 -2 -5
-3 -10 -4 -10 -1 0 3 10 10 21 17 16 8 20 8 14 -1 -4 -7 4 -6 21 3 31 16 79
53 54 41 -12 -5 -12 -4 -3 6 6 7 23 14 37 15 26 3 69 28 61 36 -2 3 10 13 28
23 l32 18 -25 -22 c-17 -15 -8 -12 30 9 30 17 54 36 52 42 -2 7 4 9 13 5 9 -3
13 -2 10 4 -3 5 5 14 17 21 22 12 22 11 8 -6 -14 -17 -14 -18 8 -6 12 7 20 16
17 20 -3 5 2 12 11 15 10 4 13 2 8 -6 -5 -7 8 -2 27 10 18 12 77 48 129 78 52
31 172 101 265 157 94 55 222 131 285 168 100 59 140 90 113 89 -4 0 -78 -39
-163 -86z m-880 -539 c0 -2 -10 -9 -22 -15 -22 -11 -22 -10 -4 4 21 17 26 19
26 11z m-215 -125 c-3 -5 -16 -15 -28 -21 -19 -9 -19 -8 3 10 28 23 34 26 25
11z"/>
<path d="M3287 5448 c-206 -205 -294 -343 -373 -586 -43 -131 -43 -155 0 -37
87 239 226 454 425 658 58 59 102 107 98 107 -4 0 -71 -64 -150 -142z"/>
<path d="M5421 5474 c0 -11 3 -14 6 -6 3 7 2 16 -1 19 -3 4 -6 -2 -5 -13z"/>
<path d="M5880 5460 c-9 -6 -10 -10 -3 -10 6 0 15 5 18 10 8 12 4 12 -15 0z"/>
<path d="M5411 5434 c0 -11 3 -14 6 -6 3 7 2 16 -1 19 -3 4 -6 -2 -5 -13z"/>
<path d="M7347 5405 c-15 -25 -27 -53 -27 -62 0 -9 -3 -13 -7 -10 -6 7 -53
-55 -53 -70 0 -4 -14 -16 -31 -25 -27 -16 -30 -22 -25 -50 4 -20 3 -26 -2 -15
-12 29 -22 22 -47 -31 -20 -44 -21 -51 -8 -78 12 -25 12 -27 -1 -11 -17 21
-25 13 -37 -41 -5 -23 -4 -41 3 -49 8 -9 7 -13 -2 -13 -12 0 -12 -9 3 -135 1
-12 17 -27 37 -37 24 -13 27 -16 10 -12 -42 10 -45 10 -42 -11 4 -28 57 -101
71 -97 6 1 10 -3 9 -9 -2 -6 32 -24 74 -39 42 -15 93 -39 112 -54 21 -15 37
-22 41 -16 4 6 11 7 17 4 6 -4 8 -3 5 3 -8 13 42 60 73 68 14 3 41 20 60 36
19 17 28 27 20 23 -13 -7 -13 -5 -1 9 15 18 26 23 16 7 -9 -15 7 -12 29 5 11
8 31 15 45 15 26 1 26 1 -4 15 l-30 15 35 -6 c19 -3 39 -10 45 -15 24 -23 195
-3 195 23 0 5 -4 7 -9 4 -5 -3 -12 1 -15 10 -9 24 -7 29 6 16 17 -17 33 -15
60 8 12 11 32 27 43 34 20 14 20 14 0 36 l-20 22 24 17 c14 9 41 21 60 27 l36
11 -30 13 c-16 8 -32 15 -34 17 -3 2 8 16 23 32 23 24 25 29 11 35 -9 3 -22 3
-27 0 -7 -5 -9 3 -4 22 17 79 18 94 6 94 -22 0 -2 185 26 249 13 30 22 56 20
58 -2 3 -24 -6 -48 -18 -23 -12 -59 -24 -78 -26 -19 -2 -39 -8 -44 -14 -6 -5
-21 -9 -35 -9 -15 0 -39 -8 -56 -18 -27 -17 -31 -17 -42 -3 -10 14 -17 11 -55
-26 -24 -24 -48 -43 -54 -43 -6 0 -23 -13 -38 -29 -22 -23 -27 -36 -23 -57 l5
-28 -19 25 c-19 24 -19 24 -35 4 -9 -12 -14 -33 -12 -52 2 -17 0 -29 -4 -27
-4 3 -8 16 -8 30 0 17 -5 24 -20 24 -11 0 -20 -7 -20 -15 0 -32 -20 -13 -26
25 -4 24 -14 45 -25 50 -9 6 -20 24 -24 41 -4 19 -12 29 -20 25 -15 -5 -20 12
-31 92 -3 28 -9 52 -13 52 -3 0 -18 -20 -34 -45z m686 -77 c-12 -34 -13 -70
-8 -170 9 -155 -2 -209 -52 -268 -90 -105 -241 -123 -320 -38 -108 115 -48
330 117 419 20 11 245 92 271 98 4 0 0 -18 -8 -41z m-630 -60 c14 -29 55 -88
91 -132 36 -43 66 -83 66 -89 0 -6 -11 4 -25 23 -20 27 -26 30 -31 16 -3 -9
-4 -43 -2 -76 l4 -59 -36 39 c-46 50 -88 54 -125 14 -54 -58 -53 -167 1 -180
29 -7 64 19 64 48 0 10 5 18 10 18 6 0 10 -5 10 -12 0 -20 32 -48 56 -48 25 0
42 37 28 62 -4 7 7 0 24 -16 18 -17 32 -37 32 -45 0 -14 2 -14 10 -1 16 22 1
-40 -15 -65 -86 -138 -265 -120 -350 35 -25 48 -29 65 -29 131 1 93 31 164
123 288 33 45 61 87 61 92 0 19 9 7 33 -43z m-239 -347 c-2 -3 -12 3 -22 13
-16 17 -16 18 5 5 12 -7 20 -15 17 -18z m499 -145 c8 5 8 2 0 -7 -7 -7 -13
-22 -14 -33 0 -15 -2 -17 -6 -6 -3 8 -11 18 -16 22 -7 4 -6 12 3 23 9 11 16
13 18 6 2 -6 9 -8 15 -5z m-238 -224 c-3 -3 -16 5 -28 17 l-22 23 28 -17 c15
-10 25 -20 22 -23z"/>
<path d="M7787 5119 c-71 -37 -100 -119 -51 -141 21 -10 31 -9 55 4 l29 17 0
-38 c0 -73 45 -77 80 -7 29 61 27 130 -5 161 -29 30 -57 31 -108 4z"/>
<path d="M5388 5370 c-9 -22 -15 -40 -13 -40 8 0 36 61 33 70 -2 5 -11 -9 -20
-30z"/>
<path d="M5516 5383 c-6 -14 -5 -15 5 -6 7 7 10 15 7 18 -3 3 -9 -2 -12 -12z"/>
<path d="M5686 5341 c-3 -5 -30 -25 -60 -45 -30 -20 -58 -46 -61 -57 -18 -55
73 -70 149 -25 52 30 78 68 74 104 -3 24 -7 27 -50 30 -25 2 -49 -1 -52 -7z"/>
<path d="M4032 5318 c5 -15 66 -53 74 -46 2 3 -14 17 -37 32 -23 15 -39 22
-37 14z"/>
<path d="M5355 5309 c-4 -6 -5 -12 -2 -15 2 -3 7 2 10 11 7 17 1 20 -8 4z"/>
<path d="M5430 5255 c-6 -7 -35 -25 -63 -40 -53 -26 -49 -35 6 -11 28 12 90
66 75 66 -3 0 -11 -7 -18 -15z"/>
<path d="M6100 5153 c-17 -19 -19 -23 -4 -10 27 22 71 22 78 0 3 -11 4 -7 3 7
-3 37 -45 39 -77 3z"/>
<path d="M3125 5084 c-9 -14 -14 -28 -12 -31 3 -3 13 9 22 26 19 38 14 41 -10
5z"/>
<path d="M4099 5095 c-43 -15 -119 -54 -119 -60 0 -2 28 9 63 25 82 39 167 48
235 26 66 -22 135 -84 165 -149 30 -64 43 -188 28 -273 -5 -32 -15 -95 -21
-139 -14 -99 -33 -159 -77 -250 -19 -38 -30 -65 -25 -60 6 6 31 51 56 101 165
333 128 661 -87 768 -58 30 -155 34 -218 11z"/>
<path d="M3949 5013 c-13 -16 -12 -17 4 -4 9 7 17 15 17 17 0 8 -8 3 -21 -13z"/>
<path d="M3899 4973 c-13 -16 -12 -17 4 -4 16 13 21 21 13 21 -2 0 -10 -8 -17
-17z"/>
<path d="M4833 4877 c1 -15 5 -27 10 -27 10 0 9 22 -2 39 -7 10 -9 7 -8 -12z"/>
<path d="M4637 4815 c3 -38 7 -71 8 -73 2 -2 12 2 23 9 19 12 19 14 4 25 -9 7
-22 34 -28 61 l-12 48 5 -70z"/>
<path d="M3572 4823 c-55 -73 -109 -183 -137 -278 -22 -73 -28 -117 -32 -235
-3 -80 -1 -171 4 -202 6 -31 6 -63 1 -71 -4 -8 -32 -29 -60 -45 -29 -17 -62
-38 -73 -47 -19 -16 -19 -16 5 -4 14 6 55 29 92 51 l66 39 -11 37 c-7 22 -12
106 -11 207 0 158 2 176 28 255 37 113 88 221 132 282 44 62 41 72 -4 11z"/>
<path d="M2866 4707 c-24 -98 -45 -226 -51 -312 -5 -83 -3 -113 14 -177 36
-137 106 -245 206 -313 30 -21 55 -41 55 -45 0 -3 -25 -30 -55 -60 -60 -59
-69 -89 -33 -114 l22 -16 -22 0 c-12 0 -47 -14 -77 -31 -69 -39 -80 -40 -132
-17 -61 27 -68 14 -19 -35 23 -23 37 -39 32 -34 -16 12 -48 8 -40 -5 4 -7 3
-8 -4 -4 -6 4 -21 2 -32 -4 -15 -8 -28 -6 -57 8 l-37 19 33 17 c18 10 31 20
28 22 -3 3 -24 -7 -47 -22 l-42 -28 35 -30 c18 -17 40 -40 48 -51 11 -16 9
-16 -13 3 -22 20 -29 22 -46 11 -16 -10 -26 -10 -47 -1 -46 21 -69 14 -128
-41 -46 -43 -57 -59 -57 -85 0 -73 94 -125 183 -101 52 13 90 34 507 279 349
206 393 230 408 230 5 0 15 -13 22 -29 15 -38 117 -135 199 -190 158 -107 317
-159 512 -168 226 -10 392 38 589 170 82 55 181 145 212 192 14 22 11 20 -12
-7 -41 -49 -151 -140 -159 -133 -3 3 1 10 9 15 10 6 4 9 -20 8 -19 0 -62 3
-95 6 -54 6 -65 3 -115 -24 -192 -107 -324 -145 -475 -137 -165 9 -295 69
-422 195 -40 39 -77 72 -83 72 -5 0 -21 12 -35 27 -14 15 -25 23 -26 18 0 -6
-4 -1 -9 10 -7 17 -9 17 -9 3 -1 -10 -5 -18 -9 -18 -12 0 -53 47 -81 93 -12
20 -27 37 -33 37 -6 0 -62 -27 -125 -60 -92 -48 -113 -56 -113 -42 0 25 -20
42 -47 42 -13 0 -23 6 -23 13 0 6 -21 23 -46 36 -107 57 -205 198 -240 346
-13 56 -15 101 -11 230 3 88 11 177 17 198 6 21 9 44 7 50 -2 7 -7 -1 -11 -16z
m1984 -1116 c0 -5 -7 -12 -16 -15 -14 -5 -15 -4 -4 9 14 17 20 19 20 6z
m-2348 -151 c-19 -33 -42 -47 -42 -25 0 17 35 55 50 55 5 0 1 -13 -8 -30z"/>
<path d="M2971 4674 c0 -11 3 -14 6 -6 3 7 2 16 -1 19 -3 4 -6 -2 -5 -13z"/>
<path d="M4840 4652 c-36 -21 -94 -53 -130 -71 -86 -44 -86 -45 -106 -104 -9
-29 -19 -58 -22 -65 -3 -8 15 0 39 16 24 16 88 56 143 88 54 32 110 67 125 79
19 17 32 20 49 14 12 -5 22 -6 22 -2 0 17 -35 83 -45 83 -5 0 -39 -17 -75 -38z"/>
<path d="M2961 4634 c0 -11 3 -14 6 -6 3 7 2 16 -1 19 -3 4 -6 -2 -5 -13z"/>
<path d="M4085 4645 c6 -2 22 -6 36 -9 68 -15 63 -141 -10 -276 -53 -97 -208
-280 -238 -280 -10 0 -28 -7 -40 -15 -25 -18 -35 -9 -57 51 -8 21 -15 34 -15
28 -1 -6 6 -30 14 -54 15 -41 14 -42 -14 -68 -77 -72 -123 -104 -141 -99 -22
6 -25 0 -11 -22 7 -11 23 -7 82 22 95 47 187 117 278 212 135 142 203 277 205
403 1 66 -1 76 -23 93 -13 10 -35 19 -50 18 -14 0 -21 -2 -16 -4z"/>
<path d="M2946 4548 c-3 -29 -6 -108 -6 -176 0 -106 4 -134 26 -200 14 -42 30
-81 35 -86 5 -6 0 15 -11 46 -32 91 -43 192 -37 336 3 72 4 132 3 132 -2 0 -6
-24 -10 -52z"/>
<path d="M7479 4581 c-13 -11 -21 -22 -18 -25 3 -3 16 5 29 19 28 30 22 33
-11 6z"/>
<path d="M5876 4479 c-82 -94 -85 -109 -9 -53 18 14 30 30 27 38 -3 7 13 36
36 64 22 29 39 52 37 52 -2 0 -43 -45 -91 -101z"/>
<path d="M5741 4455 c-12 -32 -20 -59 -18 -61 2 -2 19 15 37 39 59 74 57 72
36 64 -11 -5 -22 -3 -27 4 -4 7 -16 -13 -28 -46z"/>
<path d="M4981 4444 c0 -11 3 -14 6 -6 3 7 2 16 -1 19 -3 4 -6 -2 -5 -13z"/>
<path d="M8028 4450 c61 -9 79 -21 85 -58 4 -24 4 -24 6 5 1 27 -4 35 -29 48
-16 8 -48 14 -72 14 l-43 -1 53 -8z"/>
<path d="M9332 4398 c-106 -166 -211 -431 -212 -537 0 -53 26 -21 40 47 16 80
71 213 156 383 41 81 74 152 74 158 0 25 -20 7 -58 -51z"/>
<path d="M6420 4418 c0 -10 14 -33 30 -51 34 -40 36 -47 15 -87 -9 -17 -13
-30 -10 -30 2 0 14 19 26 42 l21 42 -27 20 c-15 10 -33 33 -41 50 -8 18 -13
24 -14 14z"/>
<path d="M10297 4328 c-61 -114 -107 -225 -162 -398 -79 -249 -128 -364 -210
-490 -41 -64 -82 -110 -70 -79 4 12 -11 14 -87 13 -51 0 -103 -4 -115 -8 -12
-4 -31 -9 -44 -11 -12 -3 -32 -13 -43 -23 -40 -37 -151 -82 -236 -97 -195 -34
-388 -18 -895 76 -115 21 -246 46 -290 54 -131 24 -291 46 -365 49 -37 2 -74
7 -81 11 -8 5 -10 4 -5 -3 8 -13 -6 -17 -17 -5 -4 3 -98 8 -209 9 -112 2 -246
6 -298 10 -52 3 -156 8 -230 10 -188 6 -363 18 -376 26 -18 12 -72 19 -78 9
-6 -8 -185 -1 -198 8 -2 1 -52 2 -113 3 -60 1 -112 4 -115 8 -10 13 -410 -24
-640 -61 -323 -51 -796 -160 -909 -210 -42 -18 -43 -20 -29 -41 8 -13 69 -61
134 -107 65 -47 189 -135 274 -197 200 -144 254 -177 288 -176 16 0 90 25 164
56 609 249 1170 364 1868 382 427 11 805 -13 1675 -107 318 -34 413 -34 547 0
148 38 270 109 391 228 114 112 238 303 277 428 47 150 195 538 239 623 23 45
37 112 24 112 -6 0 -35 -46 -66 -102z"/>
<path d="M9818 4393 c-73 -80 -156 -236 -202 -383 -33 -104 -44 -226 -24 -254
10 -13 15 -14 15 -5 2 41 38 212 55 264 11 33 58 138 103 233 46 94 83 172 81
172 -1 0 -14 -12 -28 -27z"/>
<path d="M8892 4390 c-55 -25 -154 -119 -200 -190 -40 -63 -102 -192 -101
-212 0 -7 10 10 23 37 29 64 108 187 159 248 106 127 271 168 295 74 7 -26 9
-28 15 -13 5 12 -2 26 -22 47 -25 24 -38 29 -78 29 -26 0 -67 -9 -91 -20z"/>
<path d="M5892 4370 c-34 -16 -88 -53 -119 -82 -55 -53 -109 -125 -99 -135 2
-3 12 9 21 27 44 86 224 218 264 193 24 -15 25 -82 1 -143 -11 -29 -19 -55
-16 -57 6 -6 66 155 66 177 0 21 -25 50 -43 50 -7 0 -40 -13 -75 -30z"/>
<path d="M6700 4333 c-33 -18 -58 -23 -94 -21 -33 1 -51 -2 -54 -10 -3 -9 4
-11 20 -8 12 3 48 8 80 11 48 5 57 4 60 -11 2 -11 10 -4 26 25 26 47 24 47
-38 14z"/>
<path d="M3752 4325 c0 -16 2 -22 5 -12 2 9 2 23 0 30 -3 6 -5 -1 -5 -18z"/>
<path d="M7706 4288 c-17 -81 16 -150 129 -262 46 -47 91 -98 100 -116 22 -43
30 -121 16 -151 -11 -23 -11 -23 3 -5 24 29 20 99 -8 154 -13 26 -60 83 -105
126 -94 93 -113 126 -121 221 -6 65 -7 67 -14 33z"/>
<path d="M6905 4230 c-30 -60 -46 -100 -40 -100 8 0 77 142 71 147 -2 3 -16
-18 -31 -47z"/>
<path d="M5430 4115 c-29 -86 -50 -158 -48 -161 3 -2 28 66 57 152 29 86 50
158 48 161 -3 2 -28 -66 -57 -152z"/>
<path d="M4119 4223 c-13 -16 -12 -17 4 -4 16 13 21 21 13 21 -2 0 -10 -8 -17
-17z"/>
<path d="M6385 4122 c-33 -64 -84 -150 -114 -191 -29 -42 -46 -69 -37 -62 42
35 228 353 214 366 -2 2 -30 -49 -63 -113z"/>
<path d="M3752 4180 c0 -14 2 -19 5 -12 2 6 2 18 0 25 -3 6 -5 1 -5 -13z"/>
<path d="M4320 4185 c-7 -9 -11 -17 -9 -20 3 -2 10 5 17 15 14 24 10 26 -8 5z"/>
<path d="M4079 4173 c-13 -16 -12 -17 4 -4 16 13 21 21 13 21 -2 0 -10 -8 -17
-17z"/>
<path d="M4025 4108 l-40 -43 43 40 c39 36 47 45 39 45 -2 0 -21 -19 -42 -42z"/>
<path d="M7108 4110 c-9 -22 -15 -40 -13 -40 8 0 36 61 33 70 -2 5 -11 -9 -20
-30z"/>
<path d="M5916 4115 c-9 -26 -7 -32 5 -12 6 10 9 21 6 23 -2 3 -7 -2 -11 -11z"/>
<path d="M6846 4105 c-9 -26 -7 -32 5 -12 6 10 9 21 6 23 -2 3 -7 -2 -11 -11z"/>
<path d="M8895 4043 c-21 -32 -56 -79 -77 -105 -39 -47 -45 -70 -7 -25 35 40
134 187 126 187 -2 0 -21 -26 -42 -57z"/>
<path d="M3031 4033 c7 -12 15 -20 18 -17 3 2 -3 12 -13 22 -17 16 -18 16 -5
-5z"/>
<path d="M4284 4024 c-18 -14 -18 -15 4 -4 12 6 22 13 22 15 0 8 -5 6 -26 -11z"/>
<path d="M8926 3988 c-19 -33 -25 -53 -18 -56 8 -2 10 -30 7 -85 l-5 -82 15
92 c8 51 19 111 25 134 6 22 10 43 8 44 -2 2 -17 -19 -32 -47z"/>
<path d="M5871 3979 c-7 -22 -11 -43 -8 -45 2 -2 9 14 16 37 7 22 11 43 8 45
-2 2 -9 -14 -16 -37z"/>
<path d="M7520 4000 c-6 -11 -8 -20 -6 -20 3 0 10 9 16 20 6 11 8 20 6 20 -3
0 -10 -9 -16 -20z"/>
<path d="M4205 3985 c-28 -14 -83 -30 -123 -37 -66 -11 -78 -10 -144 9 l-71
21 -81 -43 c-45 -23 -92 -45 -106 -49 -52 -12 -54 -19 -20 -80 18 -31 37 -59
42 -62 6 -4 -1 13 -16 38 -14 25 -26 52 -26 61 0 11 34 34 101 67 l101 51 74
-17 c52 -11 92 -14 132 -9 61 8 147 36 178 60 26 20 18 18 -41 -10z"/>
<path d="M7029 3973 c-13 -16 -12 -17 4 -4 16 13 21 21 13 21 -2 0 -10 -8 -17
-17z"/>
<path d="M6995 3924 c-9 -15 -12 -23 -6 -20 11 7 35 46 28 46 -3 0 -12 -12
-22 -26z"/>
<path d="M7430 3878 c-29 -35 -41 -52 -26 -38 28 25 91 100 84 100 -2 0 -28
-28 -58 -62z"/>
<path d="M3211 3915 c-20 -7 -29 -15 -23 -19 10 -6 62 19 62 30 0 2 -1 3 -2 3
-2 -1 -18 -7 -37 -14z"/>
<path d="M5840 3840 c-7 -47 -10 -96 -7 -110 3 -17 5 -13 6 16 0 22 6 66 12
98 5 31 8 63 6 69 -2 7 -10 -26 -17 -73z"/>
<path d="M9382 3900 c-25 -63 -182 -233 -250 -270 -20 -12 -28 -18 -17 -15 70
21 176 108 212 174 27 49 43 51 44 4 1 -29 4 -21 15 37 15 80 13 111 -4 70z"/>
<path d="M5351 3879 c-6 -18 -9 -34 -7 -36 2 -2 9 10 15 28 6 18 9 34 7 36 -2
2 -9 -10 -15 -28z"/>
<path d="M8339 3888 c-9 -16 -9 -23 0 -26 6 -2 11 -24 11 -49 0 -65 6 -50 13
30 5 69 -3 84 -24 45z"/>
<path d="M7031 3868 c-17 -27 -18 -34 -6 -36 11 -3 15 -17 15 -50 0 -60 15
-114 40 -144 19 -22 19 -21 0 14 -19 32 -21 50 -18 142 2 59 0 106 -4 106 -3
0 -15 -15 -27 -32z"/>
<path d="M8829 3838 c-13 -18 -48 -60 -79 -92 -35 -38 -44 -51 -24 -37 32 23
86 85 117 134 24 38 13 34 -14 -5z"/>
<path d="M7534 3825 c-7 -19 -13 -54 -13 -77 2 -42 2 -41 9 12 4 31 12 66 19
78 6 12 9 22 6 22 -3 0 -13 -16 -21 -35z"/>
<path d="M8220 3824 c-8 -8 -33 -27 -57 -41 -44 -25 -75 -63 -52 -63 11 0 139
119 128 120 -4 0 -12 -7 -19 -16z"/>
<path d="M5321 3789 c-6 -18 -9 -34 -7 -36 2 -2 9 10 15 28 6 18 9 34 7 36 -2
2 -9 -10 -15 -28z"/>
<path d="M9825 3693 c-61 -53 -154 -101 -221 -112 -36 -6 -41 -9 -18 -10 45
-2 123 25 174 59 48 32 58 27 41 -20 -5 -17 -8 -30 -6 -30 6 0 87 151 84 155
-2 1 -26 -17 -54 -42z"/>
<path d="M3710 3726 c0 -2 8 -10 18 -17 15 -13 16 -12 3 4 -13 16 -21 21 -21
13z"/>
<path d="M7919 3713 c-13 -16 -12 -17 4 -4 9 7 17 15 17 17 0 8 -8 3 -21 -13z"/>
<path d="M2864 3704 c-18 -14 -18 -15 4 -4 12 6 22 13 22 15 0 8 -5 6 -26 -11z"/>
<path d="M7530 3691 c0 -6 4 -13 10 -16 6 -3 7 1 4 9 -7 18 -14 21 -14 7z"/>
<path d="M2794 3664 c-18 -14 -18 -15 4 -4 12 6 22 13 22 15 0 8 -5 6 -26 -11z"/>
<path d="M6590 3660 c6 -11 13 -20 16 -20 2 0 0 9 -6 20 -6 11 -13 20 -16 20
-2 0 0 -9 6 -20z"/>
<path d="M6804 3634 c-18 -14 -18 -15 4 -4 12 6 22 13 22 15 0 8 -5 6 -26 -11z"/>
<path d="M5323 3613 c20 -2 54 -2 75 0 20 2 3 4 -38 4 -41 0 -58 -2 -37 -4z"/>
<path d="M7960 3590 c-21 -7 -21 -8 -5 -9 11 0 27 4 35 9 18 11 5 11 -30 0z"/>
<path d="M7728 3573 c7 -3 16 -2 19 1 4 3 -2 6 -13 5 -11 0 -14 -3 -6 -6z"/>
<path d="M7893 3573 c9 -2 23 -2 30 0 6 3 -1 5 -18 5 -16 0 -22 -2 -12 -5z"/>
<path d="M5790 2761 c0 -27 -2 -64 -5 -82 -3 -20 5 -6 19 34 25 69 25 97 0 97
-10 0 -14 -14 -14 -49z"/>
<path d="M6825 2800 c-3 -5 3 -10 14 -10 12 0 24 0 28 -1 4 0 9 4 11 10 5 14
-45 15 -53 1z"/>
<path d="M6950 2794 c0 -11 5 -14 16 -10 9 3 25 -4 40 -21 23 -24 24 -25 24
-5 0 23 -35 52 -62 52 -10 0 -18 -7 -18 -16z"/>
<path d="M7330 2783 c0 -17 -2 -46 -5 -64 -3 -19 2 -10 11 20 10 38 12 57 5
64 -8 8 -11 2 -11 -20z"/>
<path d="M7436 2798 c-3 -7 -11 -35 -20 -62 -9 -27 -16 -60 -16 -73 0 -13 -4
-23 -10 -23 -5 0 -10 -12 -10 -27 0 -25 1 -25 18 -10 25 23 38 21 57 -5 l16
-23 -3 25 c-2 14 -14 30 -28 37 l-25 13 27 0 c17 0 35 11 51 30 14 17 32 30
40 30 45 0 45 73 1 90 -36 14 -94 12 -98 -2z m44 -30 c0 -2 -7 -21 -14 -43
-14 -39 -44 -66 -33 -29 4 11 9 31 13 47 3 15 12 27 20 27 8 0 14 -1 14 -2z"/>
<path d="M7995 2799 c-8 -12 -34 -117 -35 -136 0 -23 59 -15 85 12 19 18 25
35 25 68 0 23 -5 48 -12 55 -15 15 -55 16 -63 1z"/>
<path d="M9053 2787 c26 -27 33 -27 17 2 -6 12 -17 21 -25 21 -10 0 -8 -7 8
-23z"/>
<path d="M9556 2801 c-3 -5 6 -8 20 -8 15 0 30 -7 35 -14 16 -24 1 -73 -31
-101 -34 -31 -16 -39 20 -10 31 25 41 109 15 129 -21 15 -51 17 -59 4z"/>
<path d="M6216 2787 c3 -10 9 -15 12 -12 3 3 0 11 -7 18 -10 9 -11 8 -5 -6z"/>
<path d="M6451 2793 c0 -4 4 -17 9 -28 8 -19 9 -19 9 2 1 12 -3 25 -9 28 -5 3
-10 3 -9 -2z"/>
<path d="M7896 2785 c4 -8 8 -15 10 -15 2 0 4 7 4 15 0 8 -4 15 -10 15 -5 0
-7 -7 -4 -15z"/>
<path d="M8460 2773 c0 -22 2 -25 10 -13 13 20 13 40 0 40 -5 0 -10 -12 -10
-27z"/>
<path d="M9461 2784 c0 -11 3 -14 6 -6 3 7 2 16 -1 19 -3 4 -6 -2 -5 -13z"/>
<path d="M6230 2727 c0 -12 9 -28 20 -35 23 -14 23 -14 9 27 -13 36 -29 41
-29 8z"/>
<path d="M6442 2719 c-6 -15 -14 -43 -17 -63 -4 -20 -13 -40 -21 -44 -8 -4
-11 -16 -7 -30 7 -27 23 -29 23 -4 0 11 9 45 20 78 21 61 23 112 2 63z"/>
<path d="M7950 2630 c0 -5 7 -10 16 -10 8 0 12 5 9 10 -3 6 -10 10 -16 10 -5
0 -9 -4 -9 -10z"/>
<path d="M9510 2632 c0 -5 7 -9 15 -9 8 0 12 4 9 9 -3 4 -9 8 -15 8 -5 0 -9
-4 -9 -8z"/>
<path d="M5751 2558 c-12 -40 -25 -80 -28 -88 -5 -13 -4 -13 9 0 15 16 54 147
46 156 -3 2 -15 -28 -27 -68z"/>
<path d="M9630 2577 c0 -19 29 -97 41 -111 4 -4 12 -5 17 -2 12 7 -21 91 -44
116 -12 12 -14 12 -14 -3z"/>
<path d="M6781 2498 c-10 -30 -9 -31 4 -14 8 11 15 26 15 33 0 22 -8 14 -19
-19z"/>
<path d="M7261 2504 c-6 -15 -9 -29 -7 -32 3 -2 10 8 16 23 14 36 7 43 -9 9z"/>
<path d="M7476 2499 c-21 -16 -33 -29 -25 -29 20 0 79 38 79 50 0 16 -12 11
-54 -21z"/>
<path d="M8989 2493 c-13 -16 -12 -17 4 -4 16 13 21 21 13 21 -2 0 -10 -8 -17
-17z"/>
</g>
</svg>
